<?xml version="1.0" encoding="iso-8859-1"?>
<!-- Uploaded to: SVG Repo, www.svgrepo.com, Generator: SVG Repo Mixer Tools -->
<svg fill="#000000" height="800px" width="800px" version="1.1" id="Layer_1" xmlns="http://www.w3.org/2000/svg" xmlns:xlink="http://www.w3.org/1999/xlink" 
	 viewBox="0 0 512 512" xml:space="preserve">
<g>
	<g>
		<g>
			<path d="M399.808,0H112.171c-38.39,0-69.504,31.124-69.504,69.525v372.949c0,38.401,31.114,69.525,69.504,69.525h287.637
				c38.391,0,69.525-31.125,69.525-69.525V69.525C469.333,31.125,438.199,0,399.808,0z M85.333,442.475V69.525
				c0-14.84,12.015-26.859,26.837-26.859h122.487v426.667H112.171C97.348,469.333,85.333,457.315,85.333,442.475z M426.667,442.475
				c0,14.833-12.029,26.859-26.859,26.859H277.325V42.667h122.483c14.829,0,26.859,12.026,26.859,26.859V442.475z"/>
			<path d="M191.991,192h-64c-11.782,0-21.333,9.551-21.333,21.333V320c0,11.782,9.551,21.333,21.333,21.333h64
				c11.782,0,21.333-9.551,21.333-21.333V213.333C213.325,201.551,203.774,192,191.991,192z M170.658,298.667h-21.333v-64h21.333
				V298.667z"/>
			<path d="M383.991,192h-64c-11.782,0-21.333,9.551-21.333,21.333V320c0,11.782,9.551,21.333,21.333,21.333h64
				c11.782,0,21.333-9.551,21.333-21.333V213.333C405.325,201.551,395.774,192,383.991,192z M362.658,298.667h-21.333v-64h21.333
				V298.667z"/>
			<path d="M341.325,149.333h21.333c11.782,0,21.333-9.551,21.333-21.333c0-11.782-9.551-21.333-21.333-21.333h-21.333
				c-11.782,0-21.333,9.551-21.333,21.333C319.991,139.782,329.543,149.333,341.325,149.333z"/>
		</g>
	</g>
</g>
</svg>